<mxfile host="app.diagrams.net" modified="2024-03-26T02:59:24.832Z" agent="Mozilla/5.0 (Windows NT 10.0; Win64; x64) AppleWebKit/537.36 (KHTML, like Gecko) Chrome/123.0.0.0 Safari/537.36" etag="uaDYjBYoIJZBeBX-aDT8" version="24.1.0" type="device">
  <diagram name="Page-1" id="nb3QKJCxShun3Tgc_UO4">
    <mxGraphModel dx="1050" dy="565" grid="0" gridSize="10" guides="1" tooltips="1" connect="1" arrows="1" fold="1" page="1" pageScale="1" pageWidth="1100" pageHeight="850" math="0" shadow="0">
      <root>
        <mxCell id="0" />
        <mxCell id="1" parent="0" />
        <mxCell id="QrRXlibZdM4zHSzI9IkQ-1" value="" style="rounded=0;whiteSpace=wrap;html=1;" parent="1" vertex="1">
          <mxGeometry x="465" y="170" width="175" height="240" as="geometry" />
        </mxCell>
        <mxCell id="QrRXlibZdM4zHSzI9IkQ-2" value="&lt;b&gt;Problem setting&lt;/b&gt;" style="ellipse;whiteSpace=wrap;html=1;fillColor=#dae8fc;strokeColor=#6c8ebf;" parent="1" vertex="1">
          <mxGeometry x="482.5" y="190" width="140" height="60" as="geometry" />
        </mxCell>
        <mxCell id="QrRXlibZdM4zHSzI9IkQ-3" value="&lt;b&gt;Contest details submission&lt;/b&gt;" style="ellipse;whiteSpace=wrap;html=1;fillColor=#dae8fc;strokeColor=#6c8ebf;" parent="1" vertex="1">
          <mxGeometry x="482.5" y="260" width="140" height="60" as="geometry" />
        </mxCell>
        <mxCell id="QrRXlibZdM4zHSzI9IkQ-4" value="&lt;b&gt;Launch contest&lt;/b&gt;" style="ellipse;whiteSpace=wrap;html=1;fillColor=#dae8fc;strokeColor=#6c8ebf;" parent="1" vertex="1">
          <mxGeometry x="482.5" y="330" width="140" height="60" as="geometry" />
        </mxCell>
        <mxCell id="QrRXlibZdM4zHSzI9IkQ-5" value="Problem-Setter" style="shape=umlActor;verticalLabelPosition=bottom;verticalAlign=top;html=1;outlineConnect=0;fillColor=#dae8fc;strokeColor=#6c8ebf;" parent="1" vertex="1">
          <mxGeometry x="310" y="180" width="30" height="60" as="geometry" />
        </mxCell>
        <mxCell id="QrRXlibZdM4zHSzI9IkQ-6" value="Admin" style="shape=umlActor;verticalLabelPosition=bottom;verticalAlign=top;html=1;outlineConnect=0;fillColor=#dae8fc;strokeColor=#6c8ebf;" parent="1" vertex="1">
          <mxGeometry x="310" y="310" width="30" height="60" as="geometry" />
        </mxCell>
        <mxCell id="QrRXlibZdM4zHSzI9IkQ-8" value="" style="endArrow=none;html=1;rounded=0;entryX=0;entryY=0.5;entryDx=0;entryDy=0;" parent="1" target="QrRXlibZdM4zHSzI9IkQ-2" edge="1">
          <mxGeometry width="50" height="50" relative="1" as="geometry">
            <mxPoint x="350" y="220" as="sourcePoint" />
            <mxPoint x="400" y="170" as="targetPoint" />
          </mxGeometry>
        </mxCell>
        <mxCell id="QrRXlibZdM4zHSzI9IkQ-9" value="" style="endArrow=none;html=1;rounded=0;exitX=0;exitY=0.5;exitDx=0;exitDy=0;" parent="1" source="QrRXlibZdM4zHSzI9IkQ-3" edge="1">
          <mxGeometry width="50" height="50" relative="1" as="geometry">
            <mxPoint x="300" y="270" as="sourcePoint" />
            <mxPoint x="350" y="220" as="targetPoint" />
          </mxGeometry>
        </mxCell>
        <mxCell id="QrRXlibZdM4zHSzI9IkQ-14" value="" style="endArrow=none;html=1;rounded=0;exitX=0;exitY=0.5;exitDx=0;exitDy=0;" parent="1" source="QrRXlibZdM4zHSzI9IkQ-4" edge="1">
          <mxGeometry width="50" height="50" relative="1" as="geometry">
            <mxPoint x="300" y="270" as="sourcePoint" />
            <mxPoint x="350" y="220" as="targetPoint" />
          </mxGeometry>
        </mxCell>
        <mxCell id="1voB1oLxPJd8zqieXmuU-1" value="" style="endArrow=none;html=1;rounded=0;entryX=0;entryY=0.5;entryDx=0;entryDy=0;" edge="1" parent="1" target="QrRXlibZdM4zHSzI9IkQ-4">
          <mxGeometry width="50" height="50" relative="1" as="geometry">
            <mxPoint x="339" y="349" as="sourcePoint" />
            <mxPoint x="389" y="299" as="targetPoint" />
          </mxGeometry>
        </mxCell>
      </root>
    </mxGraphModel>
  </diagram>
</mxfile>
